<svg width="26.000000" height="24.624023" viewBox="0 0 26 24.624" fill="none" xmlns="http://www.w3.org/2000/svg" xmlns:xlink="http://www.w3.org/1999/xlink">
	<desc>
			Created with Pixso.
	</desc>
	<defs/>
	<path id="Vector" d="M25.9561 12.5275L25.9336 12.5386L22.2031 3.25482L23.9053 3.25482C24.2109 3.25482 24.458 3.00742 24.458 2.70224C24.458 2.39706 24.2109 2.14963 23.9053 2.14963L13.5059 2.14963L13.5059 0.552612C13.5059 0.247437 13.2578 0 12.9531 0C12.6475 0 12.4004 0.247437 12.4004 0.552612L12.4004 2.1441L2.00586 2.1441C1.70117 2.1441 1.45312 2.39154 1.45312 2.69672C1.45312 3.00189 1.70117 3.2493 2.00586 3.2493L3.78027 3.2493L0.0439453 12.5275C0.0166016 12.5923 0.00195312 12.6617 0 12.732C0 15.2697 2.05762 17.3269 4.59473 17.3269C7.13281 17.3269 9.18945 15.2697 9.18945 12.732C9.18848 12.6617 9.17285 12.5923 9.14551 12.5275L5.41504 3.24377L12.4004 3.24377L12.4004 20.3303C9.76465 20.5292 7.70312 22.1318 7.70312 24.0714C7.70312 24.3766 7.95117 24.624 8.25586 24.624L17.6504 24.624C17.9551 24.624 18.2031 24.3766 18.2031 24.0714C18.2031 22.1318 16.1416 20.5292 13.5059 20.3303L13.5059 3.24377L20.5625 3.24377L16.8545 12.5275C16.8271 12.5923 16.8115 12.6617 16.8105 12.732C16.8105 15.2697 18.8672 17.3269 21.4053 17.3269C23.9424 17.3269 26 15.2697 26 12.732C25.998 12.6617 25.9834 12.5923 25.9561 12.5275ZM4.5918 16.23C2.88086 16.2276 1.42285 14.9852 1.14941 13.2957L8.0127 13.2957C7.74023 14.977 6.29492 16.2169 4.5918 16.23ZM7.81348 12.1904L1.38184 12.1904L4.60352 4.17215L7.81348 12.1904ZM16.998 23.5188L8.90234 23.5188C9.31152 22.3307 10.9971 21.4134 12.9473 21.4134C14.8984 21.4134 16.5889 22.3307 16.998 23.5188ZM21.3799 4.17767L24.5908 12.1904L18.1582 12.1904L21.3799 4.17767ZM21.3799 16.23L21.3799 16.2355C19.6748 16.2219 18.2295 14.9792 17.96 13.2957L24.8232 13.2957C24.5498 14.9852 23.0918 16.2276 21.3799 16.23Z" fill="#000000" fill-opacity="1.000000" fill-rule="nonzero"/>
</svg>
