<svg width="28.000000" height="26.582825" viewBox="0 0 28 26.5828" fill="none" xmlns="http://www.w3.org/2000/svg" xmlns:xlink="http://www.w3.org/1999/xlink">
	<desc>
			Created with Pixso.
	</desc>
	<defs/>
	<path id="Vector" d="M20.1006 0C17.7168 0 15.4858 1.07339 14 2.87186C12.5142 1.07333 10.2832 0 7.89941 0C3.54395 0 0 3.52463 0 7.85706C0 11.2495 2.03369 15.1735 6.04492 19.5198C9.13184 22.8646 12.4897 25.4544 13.4453 26.1685L14 26.5828L14.5542 26.1686C15.5098 25.4545 18.8682 22.8647 21.9551 19.52C25.9663 15.1736 28 11.2496 28 7.85706C28 3.52463 24.4561 0 20.1006 0ZM20.5947 18.2782C18.0557 21.0293 15.3242 23.2533 14 24.2783C12.6753 23.2533 9.94385 21.0293 7.40479 18.2781C3.76855 14.3376 1.84619 10.734 1.84619 7.85706C1.84619 4.53717 4.56152 1.83621 7.89941 1.83621C10.0962 1.83621 12.1245 3.02695 13.1929 4.94376L14 6.3923L14.8071 4.94376C15.8755 3.02701 17.9038 1.83621 20.1006 1.83621C23.4385 1.83621 26.1538 4.53711 26.1538 7.85706C26.1538 10.7341 24.2314 14.3377 20.5947 18.2782Z" fill="#000000" fill-opacity="1.000000" fill-rule="nonzero"/>
</svg>
