<svg width="17.000000" height="24.417297" viewBox="0 0 17 24.4173" fill="none" xmlns="http://www.w3.org/2000/svg" xmlns:xlink="http://www.w3.org/1999/xlink">
	<desc>
			Created with Pixso.
	</desc>
	<defs/>
	<path id="Vector" d="M8.5 0C3.81299 0 0 3.85086 0 8.5842C0 10.1834 0.438721 11.7441 1.2688 13.0982L8.01611 24.0791C8.14551 24.2895 8.37305 24.4173 8.61792 24.4173C8.61987 24.4173 8.62183 24.4173 8.62354 24.4173C8.87061 24.4153 9.09888 24.2836 9.22583 24.0695L15.801 12.9822C16.5854 11.6568 17 10.136 17 8.5842C17 3.85086 13.187 0 8.5 0ZM14.5854 12.2477L8.60718 22.3278L2.4729 12.3444C1.78198 11.2174 1.40723 9.91714 1.40723 8.5842C1.40723 4.63977 4.59424 1.42117 8.5 1.42117C12.4058 1.42117 15.5881 4.63977 15.5881 8.5842C15.5881 9.87759 15.238 11.1446 14.5854 12.2477Z" fill="#000000" fill-opacity="1.000000" fill-rule="nonzero"/>
	<path id="Vector" d="M8.49658 3.61737C5.89258 3.61737 3.77417 5.64581 3.77417 8.1391C3.77417 10.6164 5.85815 12.6608 8.49658 12.6608C11.1672 12.6608 13.2188 10.5892 13.2188 8.1391C13.2188 5.64581 11.1003 3.61737 8.49658 3.61737ZM8.49658 11.1636C6.75146 11.1636 5.33789 9.80545 5.33789 8.1391C5.33789 6.4769 6.7605 5.11456 8.49658 5.11456C10.2324 5.11456 11.6499 6.4769 11.6499 8.1391C11.6499 9.78113 10.269 11.1636 8.49658 11.1636Z" fill="#000000" fill-opacity="1.000000" fill-rule="nonzero"/>
</svg>
