<svg width="190.000000" height="42.451050" viewBox="0 0 190 42.451" fill="none" xmlns="http://www.w3.org/2000/svg" xmlns:xlink="http://www.w3.org/1999/xlink">
	<desc>
			Created with Pixso.
	</desc>
	<defs/>
	<path id="Vector" d="M95.9175 38.3538C95.9175 38.3538 97.0437 37.8079 99.019 37.0732C100.037 37.5601 102.267 38.5741 104.427 39.1981C107.351 40.0425 109.299 39.9125 112.028 39.9125C114.756 39.9125 118.654 39.4578 118.654 39.4578C118.654 39.4578 118.069 37.3144 118.004 35.7554C117.939 34.1961 117.939 33.9364 117.939 33.9364C117.939 33.9364 117.354 36.1451 117.484 37.3144C117.614 38.4835 117.614 38.8734 117.614 38.8734C117.614 38.8734 112.482 39.3931 108.845 39.0031C105.207 38.6134 102.998 38.2234 101.439 37.7041C100.58 37.4175 99.7607 37.171 99.198 37.0069C101.954 35.9923 106.267 34.6479 111.443 33.8717C120.537 32.5074 118.718 32.962 118.718 32.962C118.718 32.962 118.913 32.5723 120.082 32.4427C121.251 32.3127 133.204 31.728 136.907 31.9877C140.61 32.2473 150.808 32.7673 152.302 33.7417C153.796 34.716 154.381 35.6904 153.926 38.0938C153.472 40.4974 152.562 42.8362 151.718 42.3162C150.873 41.7965 148.015 39.5881 145.287 39.1981C142.559 38.8084 139.57 38.8734 138.336 39.1981C137.102 39.5231 135.023 40.8221 134.049 40.4975C133.074 40.1728 131.126 38.3538 129.567 39.0034C128.008 39.6531 127.943 39.8478 127.228 40.7571C126.514 41.6668 125.539 42.7062 124.76 41.7318C123.98 40.7571 122.551 40.3025 121.317 40.2375C120.083 40.1728 118.978 40.5625 118.654 40.8871C118.328 41.2121 117.874 41.8615 117.874 41.8615C117.874 41.8615 115.86 41.3421 113.521 41.6018C111.183 41.8615 107.156 42.0565 104.427 41.5368C101.699 41.0172 95.9175 38.3538 95.9175 38.3538ZM120.472 39.1331C120.472 39.1331 123.071 38.6784 124.045 39.3928C125.02 40.1075 125.214 40.6922 126.968 39.2631C128.722 37.8338 129.826 36.7944 131.775 37.8338C133.724 38.8734 134.634 39.5228 136.517 38.5485C138.401 37.5741 142.494 36.5348 145.937 37.9638C149.379 39.3928 152.043 41.6665 152.562 40.2375C153.082 38.8081 153.342 37.2491 150.679 36.6647C148.015 36.0801 144.053 35.4304 140.415 36.0151C136.777 36.5997 136.128 38.2885 134.634 37.8338C133.139 37.3791 131.516 36.0151 129.697 36.7294C127.878 37.4441 126.319 39.6528 124.824 38.9381C123.331 38.2238 122.291 37.5741 121.382 38.0288C120.472 38.4835 120.472 39.1331 120.472 39.1331Z" fill="#1F1C21" fill-opacity="1.000000" fill-rule="evenodd"/>
	<path id="Vector" d="M1.52173 0.342804L1.52173 10.0029L1.96655 10.0029C2.00098 9.44913 2.08667 8.88943 2.22949 8.33008C2.36621 7.76477 2.54321 7.22263 2.76587 6.70294C2.98291 6.1889 3.23413 5.7211 3.51929 5.29831C3.79932 4.88174 4.10742 4.54456 4.43335 4.28174C4.6731 4.0824 4.9812 3.89365 5.36377 3.71115C5.74609 3.52835 6.20312 3.37991 6.73389 3.26584C7.27075 3.14584 7.88184 3.08868 8.57788 3.08304L15.8403 3.08304L0.562256 24.1162L0.630615 24.3219L22.7261 24.3219L22.7261 13.2228L22.2808 13.2228C22.2463 13.8512 22.1833 14.4902 22.092 15.1356C21.9951 15.7809 21.864 16.409 21.6926 17.0196C21.5154 17.6305 21.2927 18.1958 21.019 18.7211C20.7449 19.2408 20.4136 19.6917 20.0195 20.0742C19.5229 20.5367 18.9978 20.8735 18.4497 21.0907C17.896 21.3076 17.3477 21.4444 16.7937 21.5016C16.2458 21.5645 15.7207 21.587 15.2239 21.5813L7.6875 21.5813L22.8972 0.548126L22.7261 0.342804L1.52173 0.342804ZM29.6116 20.4854C29.6172 20.7648 29.606 21.0504 29.5718 21.3473C29.543 21.6441 29.4631 21.941 29.3435 22.2266C29.2234 22.5122 29.0234 22.7804 28.7554 23.0204C28.498 23.2313 28.2131 23.3972 27.8872 23.5057C27.5679 23.62 27.2366 23.6997 26.894 23.7453C26.5513 23.791 26.2261 23.825 25.9119 23.8425L25.3298 23.8766L25.3298 24.3219L49.3772 24.3219L49.3772 13.9078L48.9319 13.9078L48.8296 14.9702C48.7778 15.5352 48.698 16.0949 48.5955 16.6655C48.4866 17.2308 48.3154 17.7789 48.0701 18.3098C47.8301 18.8467 47.4763 19.3376 47.0139 19.8001C46.8711 19.9486 46.6599 20.1257 46.3857 20.3251C46.1113 20.5251 45.7637 20.7195 45.3352 20.9076C44.907 21.102 44.3931 21.2617 43.7937 21.3876C43.1941 21.5129 42.4978 21.5757 41.7041 21.5813L33.8591 21.5813L33.8591 4.17926C33.8535 3.97925 33.8647 3.72833 33.8997 3.43146C33.928 3.13458 34.0076 2.82617 34.1277 2.5065C34.2537 2.18649 34.4473 1.90152 34.7158 1.64435C34.9614 1.42746 35.2468 1.26746 35.572 1.15933C35.9036 1.04495 36.24 0.964966 36.5886 0.919037C36.9309 0.873718 37.2566 0.839355 37.5591 0.822144L38.1416 0.788086L38.1416 0.342804L25.3298 0.342804L25.3298 0.788086L25.9119 0.822144C26.2148 0.839355 26.54 0.873718 26.8884 0.919037C27.2307 0.964966 27.5679 1.04495 27.8987 1.15933C28.2244 1.26746 28.51 1.42746 28.7554 1.64435C29.0234 1.90152 29.2234 2.18649 29.3435 2.5065C29.4631 2.82617 29.543 3.13458 29.5718 3.43146C29.606 3.72833 29.6172 3.97925 29.6116 4.17926L29.6116 20.4854ZM62.0178 0L54.55 18.0189C54.2991 18.6067 54.0706 19.1092 53.865 19.5204C53.6594 19.9314 53.4824 20.2742 53.3284 20.5479C53.1741 20.8163 53.0427 21.0335 52.9404 21.2045C52.8315 21.3876 52.6775 21.6101 52.489 21.8613C52.3005 22.1123 52.061 22.3694 51.7698 22.6319C51.4841 22.8891 51.1418 23.1232 50.7363 23.3288C50.3367 23.5341 49.874 23.6825 49.3433 23.7741L48.6924 23.8766L48.6924 24.3219L60.9905 24.3219L60.9905 23.8766L60.1338 23.8081C59.7974 23.7853 59.4373 23.7281 59.0549 23.6369C58.6724 23.5457 58.3127 23.4028 57.97 23.2144C57.6277 23.026 57.342 22.7804 57.1196 22.472C56.9365 22.2154 56.811 21.9129 56.7371 21.5588C56.6685 21.2104 56.6453 20.8504 56.6799 20.4798C56.708 20.1145 56.7881 19.7717 56.9141 19.4576L58.2158 16.2718L66.9854 16.2718L68.5269 20.0401C68.6182 20.251 68.6924 20.4798 68.7607 20.7307C68.8293 20.9876 68.8633 21.2335 68.8694 21.4788C68.8633 21.9869 68.7666 22.3922 68.5725 22.6891C68.384 22.9916 68.1384 23.2144 67.8418 23.3629C67.6873 23.4541 67.499 23.5282 67.2822 23.5854C67.0649 23.6425 66.8027 23.6941 66.4829 23.7338C66.1631 23.7741 65.769 23.8081 65.3069 23.8425L64.7927 23.8766L64.7927 24.3219L78.2214 24.3219L78.2214 23.8766L77.6731 23.8425C77.2678 23.8194 76.8679 23.7509 76.4741 23.6369C76.0803 23.5281 75.7205 23.3853 75.3894 23.2144C75.0525 23.0432 74.7783 22.8488 74.5557 22.6438C74.356 22.4438 74.1616 22.181 73.9792 21.8613C73.7908 21.536 73.5852 21.1076 73.3511 20.571C73.1226 20.0401 72.8369 19.3607 72.5005 18.5327L64.9299 0L62.0178 0ZM66.1292 13.8737L59.072 13.8737L62.5664 5.44675L62.6348 5.44675L66.1292 13.8737ZM88.5669 3.08304L91.1018 3.08304C91.3015 3.07742 91.5532 3.08868 91.8557 3.11179C92.1582 3.13461 92.4834 3.18024 92.8374 3.26022C93.1914 3.33429 93.5452 3.45398 93.8992 3.61429C94.259 3.77991 94.5903 4.00238 94.9043 4.28174C95.1899 4.54456 95.4468 4.89297 95.6807 5.33267C95.9089 5.77203 96.1147 6.25763 96.2859 6.78854C96.4629 7.3251 96.6055 7.86792 96.7141 8.41571C96.8223 8.96384 96.8911 9.48318 96.9255 9.96881L97.3708 9.96881L97.3708 0.342804L75.5154 0.342804L75.5154 9.96881L75.9607 9.96881C75.9946 9.48318 76.0688 8.96384 76.1775 8.41571C76.2803 7.86792 76.4229 7.3251 76.5996 6.78854C76.7712 6.25763 76.9766 5.77203 77.2109 5.33267C77.4395 4.89297 77.6963 4.54456 77.9814 4.28174C78.2957 4.00238 78.627 3.77991 78.9863 3.61429C79.3406 3.45398 79.6946 3.33429 80.0488 3.26022C80.4023 3.18024 80.728 3.13461 81.0305 3.11179C81.333 3.08868 81.5842 3.07742 81.7842 3.08304L84.3193 3.08304L84.3193 20.4854C84.325 20.6851 84.3137 20.9363 84.2788 21.2335C84.2505 21.5304 84.1709 21.8385 84.0508 22.1582C83.9312 22.4719 83.7312 22.7632 83.4626 23.0204C83.217 23.2313 82.9316 23.3972 82.6064 23.5057C82.2749 23.62 81.9382 23.6941 81.5955 23.7453C81.2473 23.791 80.9219 23.8194 80.6194 23.8425L80.0369 23.8766L80.0369 24.3219L92.8486 24.3219L92.8486 23.8766L92.2666 23.8425C91.9636 23.8194 91.6384 23.791 91.2959 23.7453C90.9478 23.6941 90.6106 23.62 90.2798 23.5057C89.9541 23.3972 89.6692 23.2313 89.4231 23.0204C89.155 22.7632 88.9607 22.4719 88.835 22.1582C88.7153 21.8385 88.6353 21.5304 88.6067 21.2335C88.5725 20.9363 88.5613 20.6851 88.5669 20.4854L88.5669 3.08304ZM132.209 0.342804L121.933 0.342804L115.527 16.6146L115.424 16.6146L109.018 0.342804L98.3301 0.342804L98.3301 0.788086L98.9126 0.822144C99.2151 0.839355 99.5403 0.873718 99.8889 0.919037C100.231 0.964966 100.568 1.04495 100.899 1.15933C101.225 1.26746 101.51 1.42746 101.756 1.64435C102.024 1.90152 102.224 2.18649 102.344 2.5065C102.463 2.82617 102.543 3.13458 102.572 3.43146C102.606 3.72833 102.617 3.97925 102.612 4.17926L102.612 19.8001C102.617 20.0629 102.601 20.3823 102.567 20.7592C102.532 21.136 102.452 21.5185 102.327 21.9013C102.207 22.2838 102.012 22.6091 101.756 22.8835C101.533 23.1004 101.248 23.2772 100.911 23.4144C100.574 23.5513 100.225 23.6541 99.8716 23.7225C99.512 23.791 99.1924 23.8309 98.9126 23.8425L98.3301 23.8766L98.3301 24.3219L109.875 24.3219L109.875 23.8766L109.292 23.8425C109.012 23.8309 108.693 23.791 108.333 23.7225C107.979 23.6541 107.631 23.5513 107.294 23.4144C106.957 23.2772 106.671 23.1004 106.449 22.8835C106.243 22.6719 106.083 22.4266 105.969 22.141C105.849 21.8557 105.764 21.5645 105.712 21.2617C105.661 20.9648 105.627 20.6851 105.61 20.4282C105.598 20.1654 105.593 19.9601 105.593 19.8001L105.593 3.66553L105.695 3.66553L113.848 24.3219L115.424 24.3219L123.577 3.66553L123.68 3.66553L123.68 20.4854C123.685 20.6851 123.674 20.9363 123.64 21.2335C123.611 21.5304 123.537 21.8385 123.411 22.1582C123.291 22.4719 123.092 22.7632 122.823 23.0204C122.578 23.2313 122.292 23.3972 121.967 23.5057C121.636 23.62 121.299 23.6941 120.957 23.7453C120.608 23.791 120.283 23.8194 119.98 23.8425L119.398 23.8766L119.398 24.3219L132.209 24.3219L132.209 23.8766L131.627 23.8425C131.325 23.8194 130.999 23.791 130.656 23.7453C130.308 23.6941 129.971 23.62 129.646 23.5057C129.315 23.3972 129.029 23.2313 128.784 23.0204C128.515 22.7632 128.322 22.4719 128.196 22.1582C128.076 21.8385 127.996 21.5304 127.968 21.2335C127.939 20.9363 127.922 20.6851 127.928 20.4854L127.928 4.17926C127.922 3.97925 127.939 3.72833 127.968 3.43146C127.996 3.13458 128.076 2.82617 128.196 2.5065C128.322 2.18649 128.515 1.90152 128.784 1.64435C129.029 1.42746 129.315 1.26746 129.646 1.15933C129.971 1.04495 130.308 0.964966 130.656 0.919037C130.999 0.873718 131.325 0.839355 131.627 0.822144L132.209 0.788086L132.209 0.342804ZM144.781 0L137.313 18.0189C137.062 18.6067 136.834 19.1092 136.628 19.5204C136.423 19.9314 136.246 20.2742 136.092 20.5479C135.938 20.8163 135.806 21.0335 135.704 21.2045C135.595 21.3876 135.441 21.6101 135.253 21.8613C135.064 22.1123 134.824 22.3694 134.533 22.6319C134.248 22.8891 133.906 23.1232 133.5 23.3288C133.1 23.5341 132.638 23.6825 132.107 23.7741L131.456 23.8766L131.456 24.3219L143.754 24.3219L143.754 23.8766L142.897 23.8081C142.561 23.7853 142.201 23.7281 141.818 23.6369C141.436 23.5457 141.076 23.4028 140.733 23.2144C140.391 23.026 140.106 22.7804 139.883 22.472C139.7 22.2154 139.575 21.9129 139.501 21.5588C139.432 21.2104 139.409 20.8504 139.443 20.4798C139.472 20.1145 139.552 19.7717 139.677 19.4576L140.979 16.2718L149.749 16.2718L151.29 20.0401C151.382 20.251 151.456 20.4798 151.524 20.7307C151.593 20.9876 151.627 21.2335 151.633 21.4788C151.627 21.9869 151.53 22.3922 151.336 22.6891C151.147 22.9916 150.902 23.2144 150.605 23.3629C150.451 23.4541 150.262 23.5282 150.046 23.5854C149.829 23.6425 149.566 23.6941 149.246 23.7338C148.927 23.7741 148.533 23.8081 148.07 23.8425L147.556 23.8766L147.556 24.3219L160.985 24.3219L160.985 23.8766L160.437 23.8425C160.031 23.8194 159.631 23.7509 159.238 23.6369C158.844 23.5281 158.484 23.3853 158.153 23.2144C157.816 23.0432 157.542 22.8488 157.319 22.6438C157.12 22.4438 156.926 22.181 156.743 21.8613C156.554 21.536 156.349 21.1076 156.115 20.571C155.886 20.0401 155.601 19.3607 155.264 18.5327L147.694 0L144.781 0ZM148.893 13.8737L141.836 13.8737L145.33 5.44675L145.398 5.44675L148.893 13.8737ZM159.752 0.342804L159.752 0.788086L160.403 0.925262C160.82 1.02216 161.248 1.20465 161.687 1.46747C162.127 1.72995 162.549 2.03244 162.954 2.38086C163.36 2.72928 163.72 3.07742 164.034 3.42554L171.947 12.2297L165.267 20.0058C165.153 20.1486 164.988 20.3195 164.782 20.5251C164.576 20.7307 164.348 20.9479 164.108 21.1704C163.863 21.3932 163.634 21.5988 163.412 21.787C163.195 21.9757 163.012 22.1241 162.869 22.2323C162.332 22.6263 161.75 22.9688 161.122 23.2488C160.5 23.5281 159.883 23.7397 159.272 23.8766L159.272 24.3219L172.735 24.3219L172.735 23.8766L171.913 23.8081C171.268 23.751 170.771 23.6766 170.417 23.5913C170.069 23.4997 169.834 23.4369 169.72 23.3972C169.475 23.3057 169.247 23.1916 169.03 23.0375C168.813 22.8891 168.63 22.7003 168.493 22.4607C168.356 22.2266 168.287 21.9354 168.282 21.5813C168.287 21.3132 168.362 21.0335 168.499 20.7367C168.636 20.4398 168.79 20.1654 168.967 19.9145C169.144 19.6632 169.292 19.4633 169.412 19.3204L173.763 14.2505L178.456 19.4232C178.701 19.6861 178.93 19.9601 179.146 20.2398C179.363 20.5251 179.546 20.8107 179.683 21.1076C179.82 21.3988 179.889 21.6957 179.894 21.9926C179.889 22.3294 179.797 22.6091 179.615 22.8319C179.438 23.0488 179.198 23.2257 178.901 23.3629C178.587 23.5169 178.221 23.6313 177.817 23.7056C177.411 23.7797 177.006 23.825 176.606 23.8425L175.613 23.8766L175.613 24.3219L190 24.3219L190 23.8766C189.624 23.8309 189.212 23.7338 188.772 23.5854C188.327 23.4369 187.859 23.2029 187.362 22.8835C186.74 22.4494 186.135 21.9297 185.558 21.3132C184.982 20.702 184.37 20.0282 183.731 19.2864L176.434 11.1331L181.059 5.78952C181.39 5.40704 181.739 5.00143 182.104 4.56738C182.475 4.13333 182.869 3.71115 183.292 3.2999C183.708 2.88898 184.165 2.51804 184.656 2.19211C184.958 1.99838 185.29 1.80963 185.661 1.63309C186.032 1.45621 186.42 1.30777 186.825 1.17621C187.225 1.04495 187.619 0.947784 188.013 0.890594L188.698 0.788086L188.698 0.342804L174.927 0.342804L174.927 0.788086L175.783 0.856537C176.412 0.907806 176.926 0.999023 177.325 1.12463C177.725 1.25058 178.033 1.40463 178.25 1.5759C178.501 1.76431 178.684 1.96994 178.787 2.19836C178.89 2.43243 178.941 2.689 178.936 2.98026C178.93 3.32306 178.884 3.62552 178.787 3.89926C178.695 4.168 178.581 4.40207 178.444 4.6077C178.307 4.81332 178.176 4.99017 178.045 5.13861L174.619 9.14667L169.755 3.73395C169.572 3.52832 169.44 3.34586 169.372 3.18585C169.304 3.02618 169.269 2.87775 169.275 2.74057C169.269 2.47775 169.332 2.22119 169.475 1.96994C169.612 1.71838 169.863 1.49591 170.234 1.30185C170.411 1.22153 170.617 1.14746 170.856 1.08496C171.096 1.02216 171.342 0.970612 171.587 0.930908C171.833 0.896545 172.055 0.868103 172.255 0.856537L173.043 0.788086L173.043 0.342804L159.752 0.342804Z" fill="#1F1C21" fill-opacity="1.000000" fill-rule="nonzero"/>
	<path id="Vector" d="M0.492188 35.6122C0.63916 35.52 0.801514 35.4359 0.979248 35.3575C1.15723 35.28 1.34497 35.2171 1.54248 35.17C1.74146 35.1215 1.94312 35.0978 2.14648 35.0956C2.43018 35.0956 2.67847 35.1447 2.88965 35.2406C3.10278 35.3381 3.26685 35.479 3.38574 35.6649C3.50342 35.8528 3.56396 36.0812 3.56616 36.3512C3.56396 36.5546 3.51709 36.744 3.42114 36.9202C3.32715 37.0959 3.19434 37.2483 3.02441 37.3814C2.8562 37.5143 2.65869 37.618 2.43188 37.6924C2.20752 37.7664 1.96265 37.804 1.70068 37.8058L1.24316 37.8058L1.24316 38.5802L1.71216 38.5802C1.91626 38.5802 2.11938 38.5939 2.32251 38.6248C2.52734 38.6542 2.72144 38.7049 2.90527 38.7752C3.08716 38.8461 3.25122 38.9398 3.39404 39.0567C3.53687 39.1742 3.65015 39.3189 3.73218 39.4908C3.81616 39.663 3.85742 39.8686 3.85938 40.1051C3.85938 40.3961 3.78906 40.6545 3.65015 40.8792C3.50928 41.1061 3.30591 41.282 3.03833 41.411C2.76807 41.5382 2.44189 41.6045 2.05249 41.607C1.83203 41.6045 1.61279 41.5811 1.39551 41.536C1.17676 41.491 0.971191 41.4323 0.780029 41.3604C0.585938 41.2879 0.41626 41.2095 0.269287 41.1254L0 41.9236C0.30835 42.1032 0.63916 42.236 0.993164 42.3185C1.34644 42.4001 1.70459 42.4417 2.0647 42.4395C2.35596 42.4395 2.6394 42.4123 2.91675 42.357C3.19653 42.3023 3.45605 42.2182 3.69922 42.1032C3.94336 41.9879 4.15649 41.8395 4.34229 41.6592C4.52759 41.4773 4.67261 41.2626 4.77808 41.0104C4.88354 40.7583 4.93652 40.4686 4.93823 40.1404C4.93091 39.7586 4.84424 39.4286 4.67603 39.1474C4.50806 38.8658 4.28125 38.6389 3.99243 38.4708C3.70264 38.3027 3.37451 38.1989 3.00317 38.1574L3.00317 38.1346C3.31177 38.0618 3.5874 37.9346 3.83154 37.7549C4.07642 37.5749 4.27197 37.3521 4.41431 37.0858C4.55713 36.8205 4.62964 36.5252 4.63354 36.1987C4.62964 35.7899 4.53174 35.4415 4.33643 35.1543C4.14087 34.8672 3.87085 34.6459 3.52295 34.4934C3.17456 34.3412 2.77222 34.2647 2.31055 34.2631C1.87866 34.2647 1.48926 34.3219 1.14331 34.4287C0.799561 34.5387 0.492188 34.6809 0.2229 34.8612L0.492188 35.6122ZM6.85034 34.4034L6.85034 37.7355C6.85254 38.0539 6.84644 38.3827 6.83081 38.7189C6.81689 39.0552 6.7876 39.3799 6.74268 39.6942C6.69604 40.0092 6.62744 40.293 6.53369 40.547C6.43994 40.8008 6.31494 41.0045 6.1582 41.1607C6.06055 41.2567 5.93945 41.3442 5.79077 41.4248C5.64185 41.5032 5.4873 41.5558 5.3252 41.5833L5.45435 42.4041C5.60889 42.4026 5.75928 42.3848 5.91016 42.3479C6.05859 42.3123 6.19922 42.2654 6.33057 42.2085C6.46118 42.152 6.57446 42.0932 6.67432 42.0289C6.89355 41.8764 7.07544 41.6829 7.22168 41.4501C7.3667 41.2154 7.48193 40.9517 7.56763 40.6586C7.6543 40.3633 7.71851 40.0498 7.75952 39.7177C7.80273 39.3833 7.82983 39.0436 7.8418 38.6936C7.85547 38.3433 7.86133 37.9974 7.85913 37.653L7.85913 35.2603L10.4639 35.2603L10.4639 42.3104L11.4958 42.3104L11.4958 34.4034L6.85034 34.4034ZM17.3499 39.8236L18.1946 42.3104L19.2854 42.3104L16.5874 34.4034L15.3674 34.4034L12.6689 42.3104L13.7249 42.3104L14.5459 39.8236L17.3499 39.8236ZM14.7571 39.0258L15.5315 36.7384C15.6133 36.4959 15.6858 36.2552 15.7488 36.0128C15.813 35.7721 15.8738 35.5356 15.9304 35.3068L15.9536 35.3068C16.0105 35.5337 16.0732 35.7687 16.1377 36.0071C16.2024 36.2452 16.2783 36.4918 16.364 36.7496L17.1504 39.0258L14.7571 39.0258ZM21.948 42.3104L22.98 42.3104L22.98 35.2718L25.3972 35.2718L25.3972 34.4034L19.5435 34.4034L19.5435 35.2718L21.948 35.2718L21.948 42.3104ZM29.467 34.2631C28.9375 34.2647 28.4487 34.3628 28.0049 34.5584C27.5591 34.7537 27.1741 35.0334 26.8459 35.3968C26.5171 35.7625 26.2632 36.1987 26.0828 36.7071C25.9009 37.2174 25.8093 37.7861 25.8071 38.4161C25.8093 39.0158 25.8953 39.5611 26.0674 40.0539C26.2397 40.5451 26.4819 40.9689 26.7969 41.3254C27.1118 41.6811 27.4871 41.9545 27.9209 42.1479C28.355 42.3398 28.834 42.4376 29.3618 42.4395C29.7668 42.4395 30.1536 42.3807 30.5193 42.2654C30.8848 42.1519 31.2214 41.9798 31.5261 41.7532C31.8313 41.5264 32.0974 41.247 32.3218 40.9108C32.5469 40.5764 32.7231 40.1892 32.8457 39.7489C32.9688 39.3089 33.0317 38.8167 33.0334 38.2749C33.0317 37.6824 32.9475 37.143 32.7812 36.6543C32.6155 36.1637 32.3765 35.7409 32.064 35.3853C31.7529 35.0278 31.3777 34.7518 30.9399 34.5584C30.5037 34.3643 30.0115 34.2647 29.467 34.2631ZM29.4321 35.0956C29.7725 35.0978 30.0774 35.1584 30.3477 35.2799C30.6191 35.399 30.8535 35.5649 31.0552 35.7743C31.2568 35.9853 31.4248 36.2281 31.5576 36.5015C31.6907 36.7752 31.7905 37.0687 31.8567 37.3774C31.9211 37.6883 31.9546 38.0033 31.9546 38.3221C31.9546 38.7736 31.8979 39.198 31.7864 39.593C31.6746 39.988 31.5105 40.3355 31.2957 40.6367C31.0786 40.938 30.8145 41.1745 30.4995 41.3467C30.1853 41.5164 29.8252 41.6029 29.4204 41.607C29.0959 41.6045 28.8013 41.5482 28.5349 41.4364C28.269 41.3229 28.0342 41.1664 27.8293 40.9654C27.6238 40.7639 27.4514 40.5273 27.3127 40.2595C27.1721 39.9895 27.0662 39.6964 26.9944 39.3799C26.9241 39.0633 26.8865 38.7343 26.8865 38.3924C26.8865 38.0464 26.9199 37.7102 26.9888 37.3871C27.0547 37.0646 27.1567 36.7637 27.293 36.4862C27.4285 36.2102 27.5984 35.9677 27.8015 35.759C28.0049 35.5515 28.2437 35.3893 28.5156 35.2734C28.7871 35.1565 29.0918 35.0978 29.4321 35.0956ZM33.491 34.4034L36.1187 39.753C36.1655 39.8452 36.1951 39.9252 36.2029 39.9977C36.2104 40.0695 36.1951 40.1479 36.1541 40.2342C36.0898 40.377 36.0112 40.5273 35.9175 40.6817C35.8235 40.8383 35.7141 40.9826 35.5869 41.1198C35.4597 41.2567 35.3149 41.3661 35.1528 41.452C34.9905 41.5361 34.8066 41.5811 34.6055 41.5833C34.5178 41.5833 34.4436 41.5811 34.3806 41.5751C34.3179 41.5695 34.2651 41.5595 34.2183 41.5482L34.1245 42.3807C34.1892 42.4041 34.2673 42.422 34.3589 42.4335C34.4526 42.4451 34.5659 42.451 34.6992 42.451C35.0491 42.451 35.3723 42.3691 35.6653 42.2066C35.9583 42.0426 36.2322 41.8004 36.4822 41.4773C36.623 41.2935 36.7603 41.0864 36.8909 40.852C37.0242 40.617 37.1514 40.3689 37.2744 40.1051C37.3977 39.8411 37.5168 39.5711 37.6304 39.2974C37.7454 39.0217 37.855 38.7524 37.9609 38.4861L39.6265 34.4034L38.5469 34.4034L37.3037 37.7589C37.21 38.0383 37.1238 38.2961 37.0454 38.5311C36.9675 38.7636 36.8928 38.9808 36.8225 39.1783L36.7876 39.1783C36.6995 38.9499 36.6094 38.7205 36.5156 38.4902C36.4219 38.2611 36.3237 38.0287 36.2244 37.7943L34.6526 34.4034L33.491 34.4034ZM45.7847 41.2429C45.646 41.3092 45.4875 41.3679 45.3079 41.417C45.1279 41.4658 44.9368 41.5032 44.7329 41.5301C44.5278 41.5579 44.3206 41.571 44.1077 41.571C43.468 41.5676 42.9226 41.4382 42.4729 41.1801C42.0234 40.9223 41.679 40.5567 41.4404 40.0817C41.2024 39.6083 41.0823 39.0452 41.0808 38.3924C41.0823 37.8718 41.1567 37.4108 41.3018 37.0059C41.448 36.6034 41.6577 36.2609 41.927 35.9834C42.199 35.7037 42.5237 35.4928 42.9014 35.3478C43.2803 35.2034 43.7004 35.1312 44.1665 35.1312C44.4966 35.1331 44.7954 35.164 45.0632 35.2253C45.3318 35.2856 45.5601 35.364 45.7495 35.4593L46.0076 34.6262C45.9175 34.5775 45.7869 34.5269 45.6167 34.4722C45.4468 34.419 45.238 34.3725 44.9915 34.335C44.7427 34.2959 44.4556 34.2769 44.1304 34.2747C43.5151 34.2769 42.9561 34.3765 42.4512 34.574C41.9468 34.7715 41.5127 35.0531 41.147 35.4187C40.7815 35.7843 40.5 36.2218 40.3025 36.7284C40.103 37.2368 40.0037 37.804 40.0012 38.4274C40.0051 39.0786 40.103 39.6533 40.2964 40.1536C40.4902 40.6523 40.7617 41.0707 41.1143 41.4095C41.4644 41.7492 41.875 42.0054 42.3474 42.1791C42.8188 42.3513 43.335 42.4395 43.8965 42.4395C44.2185 42.4376 44.5142 42.4198 44.7842 42.3848C45.0535 42.3479 45.2927 42.3007 45.4956 42.2441C45.6987 42.1873 45.8613 42.1285 45.9844 42.0639L45.7847 41.2429ZM48.7756 42.3104L49.8081 42.3104L49.8081 35.2718L52.2253 35.2718L52.2253 34.4034L46.3713 34.4034L46.3713 35.2718L48.7756 35.2718L48.7756 42.3104ZM56.2952 34.2631C55.7654 34.2647 55.2769 34.3628 54.8328 34.5584C54.387 34.7537 54.0022 35.0334 53.6736 35.3968C53.345 35.7625 53.0911 36.1987 52.9109 36.7071C52.729 37.2174 52.6375 37.7861 52.6353 38.4161C52.6375 39.0158 52.7231 39.5611 52.8953 40.0539C53.0674 40.5451 53.3098 40.9689 53.625 41.3254C53.9399 41.6811 54.3152 41.9545 54.7485 42.1479C55.1826 42.3398 55.6616 42.4376 56.1899 42.4395C56.5945 42.4395 56.9814 42.3807 57.3469 42.2654C57.7126 42.1519 58.0496 41.9798 58.3542 41.7532C58.6592 41.5264 58.9253 41.247 59.1497 40.9108C59.375 40.5764 59.551 40.1892 59.6738 39.7489C59.7969 39.3089 59.8596 38.8167 59.8613 38.2749C59.8596 37.6824 59.7756 37.143 59.6091 36.6543C59.4436 36.1637 59.2043 35.7409 58.8918 35.3853C58.5811 35.0278 58.2053 34.7518 57.7678 34.5584C57.3318 34.3643 56.8391 34.2647 56.2952 34.2631ZM56.2603 35.0956C56.6003 35.0978 56.9055 35.1584 57.1755 35.2799C57.4473 35.399 57.6816 35.5649 57.8833 35.7743C58.0847 35.9853 58.2529 36.2281 58.3857 36.5015C58.5188 36.7752 58.6184 37.0687 58.6846 37.3774C58.749 37.6883 58.7827 38.0033 58.7827 38.3221C58.7827 38.7736 58.7261 39.198 58.6145 39.593C58.5027 39.988 58.3386 40.3355 58.1238 40.6367C57.9067 40.938 57.6426 41.1745 57.3276 41.3467C57.0132 41.5164 56.6533 41.6029 56.2485 41.607C55.9238 41.6045 55.6289 41.5482 55.363 41.4364C55.0969 41.3229 54.8621 41.1664 54.657 40.9654C54.4517 40.7639 54.2795 40.5273 54.1409 40.2595C54.0002 39.9895 53.8943 39.6964 53.8223 39.3799C53.7522 39.0633 53.7146 38.7343 53.7146 38.3924C53.7146 38.0464 53.748 37.7102 53.8164 37.3871C53.8828 37.0646 53.9846 36.7637 54.1211 36.4862C54.2563 36.2102 54.426 35.9677 54.6296 35.759C54.8328 35.5515 55.0718 35.3893 55.3435 35.2734C55.6152 35.1565 55.9199 35.0978 56.2603 35.0956ZM61.187 42.2867C61.3572 42.3104 61.5759 42.3316 61.8418 42.3513C62.1082 42.3691 62.4192 42.3788 62.7705 42.3807C63.4163 42.3807 63.9636 42.322 64.4133 42.201C64.8645 42.0795 65.2246 41.8942 65.4924 41.642C65.6997 41.4542 65.8662 41.2292 65.9868 40.9654C66.1084 40.7011 66.1704 40.3983 66.1731 40.058C66.1704 39.7648 66.1199 39.5049 66.0242 39.2795C65.9265 39.0552 65.7993 38.8593 65.6394 38.6992C65.4788 38.5368 65.3047 38.4061 65.113 38.3043C64.9233 38.2024 64.7317 38.1305 64.5425 38.0874L64.5425 38.0521C64.8181 37.9524 65.0542 37.8155 65.2539 37.6433C65.4531 37.4712 65.6074 37.2721 65.7153 37.0452C65.8228 36.8184 65.8774 36.5759 65.8794 36.3156C65.8774 36.0046 65.8171 35.7312 65.6997 35.4987C65.5806 35.2659 65.418 35.0724 65.2109 34.92C65.0525 34.7868 64.8706 34.6775 64.6655 34.5934C64.46 34.5093 64.2234 34.4468 63.9597 34.4059C63.6936 34.3643 63.3909 34.3447 63.0522 34.3447C62.8157 34.3447 62.583 34.3528 62.3545 34.3665C62.1252 34.3822 61.9121 34.4019 61.7131 34.4287C61.5115 34.4547 61.3374 34.4859 61.187 34.5209L61.187 42.2867ZM62.2075 35.2015C62.2878 35.1818 62.3994 35.1665 62.5437 35.1525C62.6885 35.1387 62.8784 35.1312 63.1108 35.1312C63.4573 35.129 63.76 35.174 64.0161 35.2621C64.2747 35.35 64.4756 35.4887 64.6184 35.6806C64.7612 35.8699 64.8337 36.1165 64.8352 36.4215C64.8352 36.6777 64.7668 36.9065 64.6321 37.1077C64.4973 37.3071 64.3035 37.4655 64.0496 37.5805C63.7974 37.698 63.4922 37.7567 63.1348 37.7589L62.2075 37.7589L62.2075 35.2015ZM62.2075 38.5214L63.0522 38.5214C63.3337 38.5214 63.5959 38.5508 63.842 38.6096C64.0869 38.6683 64.3035 38.7599 64.4912 38.883C64.6787 39.0061 64.8254 39.1645 64.9314 39.358C65.0369 39.5495 65.0916 39.7805 65.0933 40.0464C65.0916 40.3314 65.0347 40.5745 64.9253 40.7714C64.8159 40.9689 64.6655 41.1279 64.4756 41.247C64.2837 41.3661 64.0691 41.452 63.8264 41.5048C63.5845 41.5579 63.3296 41.5851 63.0637 41.5833C62.8826 41.5833 62.72 41.5792 62.5791 41.5735C62.4363 41.5654 62.3132 41.5539 62.2075 41.536L62.2075 38.5214ZM72.8591 41.2429C72.7205 41.3092 72.562 41.3679 72.3826 41.417C72.2021 41.4658 72.011 41.5032 71.8074 41.5301C71.6023 41.5579 71.395 41.571 71.1819 41.571C70.5422 41.5676 69.9971 41.4382 69.5474 41.1801C69.0977 40.9223 68.7534 40.5567 68.5151 40.0817C68.2769 39.6083 68.157 39.0452 68.1553 38.3924C68.157 37.8718 68.2312 37.4108 68.3765 37.0059C68.5227 36.6034 68.7319 36.2609 69.0017 35.9834C69.2732 35.7037 69.5979 35.4928 69.9758 35.3478C70.3545 35.2034 70.7749 35.1312 71.2407 35.1312C71.5713 35.1331 71.8701 35.164 72.1379 35.2253C72.406 35.2856 72.6348 35.364 72.8242 35.4593L73.082 34.6262C72.9922 34.5775 72.8616 34.5269 72.6909 34.4722C72.5212 34.419 72.3123 34.3725 72.0657 34.335C71.8169 34.2959 71.5298 34.2769 71.2051 34.2747C70.5894 34.2769 70.0305 34.3765 69.5254 34.574C69.021 34.7715 68.5869 35.0531 68.2214 35.4187C67.8557 35.7843 67.5742 36.2218 67.3767 36.7284C67.1777 37.2368 67.0781 37.804 67.0759 38.4274C67.0796 39.0786 67.1777 39.6533 67.3711 40.1536C67.5645 40.6523 67.8362 41.0707 68.1887 41.4095C68.5386 41.7492 68.9492 42.0054 69.4221 42.1791C69.8936 42.3513 70.4092 42.4395 70.9707 42.4395C71.2932 42.4376 71.5886 42.4198 71.8584 42.3848C72.1279 42.3479 72.3669 42.3007 72.5701 42.2441C72.7734 42.1873 72.9355 42.1285 73.0588 42.0639L72.8591 41.2429ZM74.3489 34.4034L74.3489 42.3104L75.3694 42.3104L75.3694 38.6855L75.698 38.6855C76.0303 38.6855 76.3159 38.7286 76.5544 38.8127C76.791 38.8986 76.9944 39.0177 77.1606 39.1742C77.3264 39.3286 77.4675 39.5145 77.5828 39.7299C77.7002 39.9445 77.802 40.183 77.8918 40.4448C77.9661 40.6545 78.0405 40.8676 78.1145 41.0845C78.189 41.3035 78.2671 41.5164 78.3489 41.726C78.4314 41.9332 78.5212 42.1285 78.6189 42.3104L79.7102 42.3104C79.5984 42.076 79.4949 41.8373 79.4009 41.597C79.3071 41.3542 79.2173 41.1082 79.1274 40.8539C79.0376 40.5998 78.9414 40.3395 78.8418 40.0695C78.7439 39.8017 78.6345 39.5536 78.5115 39.3252C78.3906 39.0961 78.2451 38.8927 78.0754 38.7149C77.9075 38.5368 77.7058 38.3883 77.4692 38.2708C77.2327 38.1534 76.9512 38.0733 76.6248 38.0287L79.6162 34.4034L78.3962 34.4034L75.6863 37.9111L75.3694 37.9111L75.3694 34.4034L74.3489 34.4034ZM80.7068 34.4034L80.7068 42.3104L81.7976 42.3104L84.2729 38.3687C84.5469 37.933 84.8091 37.4908 85.0627 37.0434C85.3176 36.5956 85.5442 36.154 85.7395 35.7174L85.7744 35.7296C85.7476 36.0599 85.7278 36.39 85.7141 36.7202C85.7004 37.053 85.6929 37.4008 85.687 37.7624C85.6829 38.1264 85.6807 38.519 85.6807 38.9433L85.6807 42.3104L86.6428 42.3104L86.6428 34.4034L85.6226 34.4034L83.0652 38.4743C82.7776 38.9417 82.5117 39.393 82.2671 39.827C82.0229 40.2595 81.8042 40.6817 81.6101 41.0904L81.575 41.0789C81.5986 40.7289 81.6165 40.3748 81.6296 40.0189C81.6436 39.663 81.6533 39.2973 81.6614 38.9205C81.667 38.5427 81.6689 38.1477 81.6689 37.7355L81.6689 34.4034L80.7068 34.4034ZM92.5085 37.7589L89.4468 37.7589L89.4468 35.2603L92.6965 35.2603L92.6965 34.4034L88.4143 34.4034L88.4143 42.3104L92.8723 42.3104L92.8723 41.4542L89.4468 41.4542L89.4468 38.6036L92.5085 38.6036L92.5085 37.7589ZM158.84 34.4034L158.84 42.3104L159.872 42.3104L159.872 38.6036L163.697 38.6036L163.697 42.3104L164.729 42.3104L164.729 34.4034L163.697 34.4034L163.697 37.7118L159.872 37.7118L159.872 34.4034L158.84 34.4034ZM169.691 34.2631C169.161 34.2647 168.672 34.3628 168.228 34.5584C167.783 34.7537 167.397 35.0334 167.069 35.3968C166.74 35.7625 166.486 36.1987 166.306 36.7071C166.124 37.2174 166.033 37.7861 166.031 38.4161C166.033 39.0158 166.119 39.5611 166.291 40.0539C166.463 40.5451 166.705 40.9689 167.02 41.3254C167.335 41.6811 167.71 41.9545 168.144 42.1479C168.578 42.3398 169.057 42.4376 169.585 42.4395C169.99 42.4395 170.377 42.3807 170.743 42.2654C171.108 42.1519 171.445 41.9798 171.75 41.7532C172.055 41.5264 172.321 41.247 172.545 40.9108C172.77 40.5764 172.947 40.1892 173.069 39.7489C173.192 39.3089 173.255 38.8167 173.257 38.2749C173.255 37.6824 173.171 37.143 173.005 36.6543C172.839 36.1637 172.6 35.7409 172.287 35.3853C171.976 35.0278 171.601 34.7518 171.164 34.5584C170.727 34.3643 170.235 34.2647 169.691 34.2631ZM169.656 35.0956C169.996 35.0978 170.301 35.1584 170.571 35.2799C170.843 35.399 171.077 35.5649 171.279 35.7743C171.48 35.9853 171.648 36.2281 171.781 36.5015C171.914 36.7752 172.014 37.0687 172.08 37.3774C172.145 37.6883 172.178 38.0033 172.178 38.3221C172.178 38.7736 172.121 39.198 172.01 39.593C171.898 39.988 171.734 40.3355 171.519 40.6367C171.302 40.938 171.038 41.1745 170.723 41.3467C170.408 41.5164 170.049 41.6029 169.644 41.607C169.319 41.6045 169.024 41.5482 168.759 41.4364C168.492 41.3229 168.258 41.1664 168.053 40.9654C167.847 40.7639 167.675 40.5273 167.536 40.2595C167.396 39.9895 167.29 39.6964 167.218 39.3799C167.147 39.0633 167.11 38.7343 167.11 38.3924C167.11 38.0464 167.143 37.7102 167.212 37.3871C167.278 37.0646 167.38 36.7637 167.516 36.4862C167.652 36.2102 167.822 35.9677 168.025 35.759C168.228 35.5515 168.467 35.3893 168.739 35.2734C169.011 35.1565 169.315 35.0978 169.656 35.0956ZM173.949 34.4034L176.741 38.0405C176.434 38.0793 176.17 38.1533 175.945 38.2652C175.722 38.3767 175.529 38.5189 175.366 38.6952C175.206 38.8714 175.065 39.0764 174.944 39.3089C174.825 39.5421 174.715 39.8001 174.618 40.0817C174.534 40.3279 174.452 40.5764 174.372 40.8267C174.293 41.0767 174.209 41.3254 174.121 41.5735C174.033 41.8217 173.932 42.0679 173.82 42.3104L174.864 42.3104C174.95 42.1326 175.028 41.9351 175.103 41.7198C175.175 41.5048 175.246 41.2895 175.312 41.0707C175.378 40.852 175.443 40.6464 175.509 40.457C175.601 40.1852 175.701 39.943 175.806 39.7236C175.914 39.5064 176.041 39.3211 176.19 39.1667C176.338 39.0121 176.522 38.8927 176.741 38.8105C176.958 38.7286 177.224 38.6855 177.539 38.6855L177.903 38.6855L177.903 42.3104L178.888 42.3104L178.888 38.6855L179.24 38.6855C179.554 38.6855 179.821 38.7286 180.039 38.8105C180.256 38.8927 180.44 39.0121 180.589 39.1667C180.738 39.3211 180.864 39.5064 180.972 39.7236C181.077 39.943 181.178 40.1852 181.269 40.457C181.332 40.6464 181.395 40.852 181.461 41.0707C181.525 41.2895 181.595 41.5048 181.668 41.7198C181.742 41.9351 181.825 42.1326 181.915 42.3104L182.958 42.3104C182.851 42.0679 182.753 41.8217 182.669 41.5735C182.585 41.3254 182.503 41.0748 182.427 40.8226C182.35 40.5704 182.269 40.3201 182.184 40.0695C182.087 39.7864 181.977 39.5283 181.856 39.2933C181.734 39.0592 181.592 38.8536 181.427 38.6758C181.263 38.5002 181.068 38.3574 180.841 38.2474C180.615 38.1402 180.346 38.0693 180.038 38.0405L182.841 34.4034L181.657 34.4034L179.205 37.9111L178.888 37.9111L178.888 34.4034L177.903 34.4034L177.903 37.9111L177.585 37.9111L175.134 34.4034L173.949 34.4034ZM183.979 34.4034L183.979 42.3104L185.07 42.3104L187.545 38.3687C187.819 37.933 188.081 37.4908 188.335 37.0434C188.589 36.5956 188.816 36.154 189.011 35.7174L189.046 35.7296C189.019 36.0599 189 36.39 188.986 36.7202C188.972 37.053 188.965 37.4008 188.959 37.7624C188.955 38.1264 188.952 38.519 188.952 38.9433L188.952 42.3104L189.915 42.3104L189.915 34.4034L188.894 34.4034L186.337 38.4743C186.05 38.9417 185.783 39.393 185.539 39.827C185.295 40.2595 185.076 40.6817 184.882 41.0904L184.847 41.0789C184.87 40.7289 184.888 40.3748 184.902 40.0189C184.915 39.663 184.925 39.2973 184.933 38.9205C184.939 38.5427 184.941 38.1477 184.941 37.7355L184.941 34.4034L183.979 34.4034Z" fill="#1F1C21" fill-opacity="1.000000" fill-rule="nonzero"/>
</svg>
