<svg width="21.369629" height="27.662292" viewBox="0 0 21.3696 27.6623" fill="none" xmlns="http://www.w3.org/2000/svg" xmlns:xlink="http://www.w3.org/1999/xlink">
	<desc>
			Created with Pixso.
	</desc>
	<defs/>
	<path id="Vector" d="M10.5942 14.9052C10.6201 14.9052 10.646 14.9052 10.6772 14.9052C10.6875 14.9052 10.6982 14.9052 10.7085 14.9052C10.7241 14.9052 10.7451 14.9052 10.7607 14.9052C12.2847 14.8766 13.5181 14.2866 14.4282 13.1581C16.4312 10.672 16.0981 6.41003 16.062 6.00333C15.9316 2.9501 14.6206 1.48938 13.5386 0.807709C12.7324 0.297882 11.7905 0.0229187 10.7397 0L10.7031 0C10.6982 0 10.6875 0 10.6826 0L10.6514 0C10.0737 0 8.93945 0.103119 7.85254 0.78479C6.75977 1.46646 5.42822 2.92719 5.29785 6.00333C5.26172 6.41003 4.92871 10.672 6.93164 13.1581C7.83691 14.2866 9.06982 14.8766 10.5942 14.9052ZM6.68701 6.14655C6.68701 6.12936 6.69238 6.11218 6.69238 6.10071C6.86377 1.99347 9.51221 1.5524 10.646 1.5524L10.667 1.5524C10.6772 1.5524 10.6929 1.5524 10.7085 1.5524C12.1133 1.58676 14.501 2.21689 14.6626 6.10071C14.6626 6.11789 14.6626 6.13507 14.6675 6.14655C14.6729 6.18665 15.0371 10.0819 13.3828 12.1327C12.7271 12.9461 11.853 13.3471 10.7031 13.3586C10.6929 13.3586 10.6875 13.3586 10.6772 13.3586C10.667 13.3586 10.6616 13.3586 10.6514 13.3586C9.50684 13.3471 8.62744 12.9461 7.97705 12.1327C6.32812 10.0934 6.68164 6.18091 6.68701 6.14655Z" fill="#FFFFFF" fill-opacity="1.000000" fill-rule="nonzero"/>
	<path id="Vector" d="M21.3682 21.974C21.3682 21.9683 21.3682 21.9626 21.3682 21.9568C21.3682 21.911 21.3628 21.8652 21.3628 21.8136C21.3315 20.6794 21.2642 18.0272 19.0063 17.1794C18.9907 17.1736 18.9697 17.1679 18.9541 17.1622C16.6079 16.5034 14.6567 15.0141 14.6362 14.9969C14.3188 14.7505 13.8818 14.8365 13.6582 15.1859C13.4346 15.5353 13.5122 16.0165 13.8296 16.2628C13.918 16.3316 15.9888 17.9183 18.5796 18.6516C19.792 19.127 19.9272 20.5534 19.9634 21.8595C19.9634 21.911 19.9634 21.9568 19.9688 22.0027C19.9741 22.5182 19.9429 23.3145 19.8594 23.7727C19.0166 24.2997 15.7129 26.1214 10.6875 26.1214C5.68262 26.1214 2.3584 24.294 1.51025 23.767C1.42676 23.3087 1.39062 22.5125 1.40088 21.9969C1.40088 21.9511 1.40625 21.9053 1.40625 21.8537C1.44238 20.5477 1.57764 19.1213 2.79004 18.6458C5.38086 17.9126 7.45166 16.3201 7.54004 16.2571C7.85742 16.0108 7.93506 15.5296 7.71143 15.1802C7.48779 14.8307 7.05078 14.7448 6.7334 14.9911C6.71289 15.0083 4.77197 16.4977 2.41553 17.1565C2.39453 17.1622 2.37891 17.1679 2.36328 17.1736C0.105469 18.0272 0.0375977 20.6794 0.00683594 21.8079C0.00683594 21.8595 0.00683594 21.9053 0.00146484 21.9511C0.00146484 21.9568 0.00146484 21.9626 0.00146484 21.9683C-0.00390625 22.2662 -0.00878906 23.7957 0.266602 24.5633C0.318848 24.7122 0.412598 24.8382 0.537109 24.9241C0.693359 25.0387 4.43408 27.6623 10.6924 27.6623C16.9512 27.6623 20.6919 25.033 20.8481 24.9241C20.9678 24.8382 21.0664 24.7122 21.1187 24.5633C21.3784 23.8014 21.3735 22.2719 21.3682 21.974Z" fill="#FFFFFF" fill-opacity="1.000000" fill-rule="nonzero"/>
</svg>
